<svg id="visual" viewBox="0 0 900 600" width="900" height="600" xmlns="http://www.w3.org/2000/svg" xmlns:xlink="http://www.w3.org/1999/xlink" version="1.1"><rect x="0" y="0" width="900" height="600" fill="#001220"></rect><defs><linearGradient id="grad1_0" x1="33.3%" y1="0%" x2="100%" y2="100%"><stop offset="20%" stop-color="#001220" stop-opacity="1"></stop><stop offset="80%" stop-color="#001220" stop-opacity="1"></stop></linearGradient></defs><defs><linearGradient id="grad2_0" x1="0%" y1="0%" x2="66.7%" y2="100%"><stop offset="20%" stop-color="#001220" stop-opacity="1"></stop><stop offset="80%" stop-color="#001220" stop-opacity="1"></stop></linearGradient></defs><g transform="translate(900, 0)"><path d="M0 486.7C-49.1 447.2 -98.2 407.7 -161.9 390.8C-225.5 373.9 -303.8 379.7 -344.2 344.2C-384.6 308.7 -387.2 231.9 -404.7 167.6C-422.1 103.4 -454.4 51.7 -486.7 0L0 0Z" fill="#FBAE3C"></path></g><g transform="translate(0, 600)"><path d="M0 -486.7C53.8 -456.5 107.6 -426.3 168.8 -407.4C230 -388.5 298.6 -381 344.2 -344.2C389.8 -307.4 412.4 -241.3 432.4 -179.1C452.3 -116.9 469.5 -58.4 486.7 0L0 0Z" fill="#FBAE3C"></path></g></svg>