<svg id="visual" viewBox="0 0 900 600" width="900" height="600" xmlns="http://www.w3.org/2000/svg" xmlns:xlink="http://www.w3.org/1999/xlink" version="1.1"><rect x="0" y="0" width="900" height="600" fill="#001220"></rect><path d="M0 447L21.5 440.7C43 434.3 86 421.7 128.8 421.8C171.7 422 214.3 435 257.2 437.8C300 440.7 343 433.3 385.8 424C428.7 414.7 471.3 403.3 514.2 405.8C557 408.3 600 424.7 642.8 421.5C685.7 418.3 728.3 395.7 771.2 390.7C814 385.7 857 398.3 878.5 404.7L900 411L900 601L878.5 601C857 601 814 601 771.2 601C728.3 601 685.7 601 642.8 601C600 601 557 601 514.2 601C471.3 601 428.7 601 385.8 601C343 601 300 601 257.2 601C214.3 601 171.7 601 128.8 601C86 601 43 601 21.5 601L0 601Z" fill="#6600ff"></path><path d="M0 440L21.5 445.8C43 451.7 86 463.3 128.8 465.2C171.7 467 214.3 459 257.2 451.2C300 443.3 343 435.7 385.8 438.2C428.7 440.7 471.3 453.3 514.2 448.2C557 443 600 420 642.8 420.7C685.7 421.3 728.3 445.7 771.2 455.5C814 465.3 857 460.7 878.5 458.3L900 456L900 601L878.5 601C857 601 814 601 771.2 601C728.3 601 685.7 601 642.8 601C600 601 557 601 514.2 601C471.3 601 428.7 601 385.8 601C343 601 300 601 257.2 601C214.3 601 171.7 601 128.8 601C86 601 43 601 21.5 601L0 601Z" fill="#ae00cd"></path><path d="M0 453L21.5 453.8C43 454.7 86 456.3 128.8 458.5C171.7 460.7 214.3 463.3 257.2 471.2C300 479 343 492 385.8 495.2C428.7 498.3 471.3 491.7 514.2 481.3C557 471 600 457 642.8 456.2C685.7 455.3 728.3 467.7 771.2 477.8C814 488 857 496 878.5 500L900 504L900 601L878.5 601C857 601 814 601 771.2 601C728.3 601 685.7 601 642.8 601C600 601 557 601 514.2 601C471.3 601 428.7 601 385.8 601C343 601 300 601 257.2 601C214.3 601 171.7 601 128.8 601C86 601 43 601 21.5 601L0 601Z" fill="#c500a4"></path><path d="M0 536L21.5 534.5C43 533 86 530 128.8 526.8C171.7 523.7 214.3 520.3 257.2 518.8C300 517.3 343 517.7 385.8 521.5C428.7 525.3 471.3 532.7 514.2 526.5C557 520.3 600 500.7 642.8 494C685.7 487.3 728.3 493.7 771.2 497.2C814 500.7 857 501.3 878.5 501.7L900 502L900 601L878.5 601C857 601 814 601 771.2 601C728.3 601 685.7 601 642.8 601C600 601 557 601 514.2 601C471.3 601 428.7 601 385.8 601C343 601 300 601 257.2 601C214.3 601 171.7 601 128.8 601C86 601 43 601 21.5 601L0 601Z" fill="#ca0783"></path><path d="M0 540L21.5 538.3C43 536.7 86 533.3 128.8 532.5C171.7 531.7 214.3 533.3 257.2 540.2C300 547 343 559 385.8 559.8C428.7 560.7 471.3 550.3 514.2 550C557 549.7 600 559.3 642.8 557.7C685.7 556 728.3 543 771.2 535.5C814 528 857 526 878.5 525L900 524L900 601L878.5 601C857 601 814 601 771.2 601C728.3 601 685.7 601 642.8 601C600 601 557 601 514.2 601C471.3 601 428.7 601 385.8 601C343 601 300 601 257.2 601C214.3 601 171.7 601 128.8 601C86 601 43 601 21.5 601L0 601Z" fill="#c62368"></path></svg>